<svg width="55" height="18" viewBox="0 0 55 18" fill="none" xmlns="http://www.w3.org/2000/svg">
<path d="M0.612737 17.1018C0.437669 17.1018 0.29178 17.0698 0.175068 17.0058C0.0583559 16.9578 0 16.8698 0 16.7418C0 16.5978 0.0510614 16.4858 0.153184 16.4058C0.269896 16.3258 0.415786 16.2538 0.590854 16.1898C1.01393 16.0618 1.37866 15.8698 1.68503 15.6138C2.00599 15.3418 2.26129 14.9738 2.45095 14.5098C2.81567 13.5658 3.16581 12.6618 3.50136 11.7978C3.8369 10.9178 4.15786 10.0458 4.46423 9.18179C4.7706 8.31779 5.07697 7.43779 5.38333 6.54179C5.70429 5.64579 6.02525 4.70179 6.34621 3.70979C6.50669 3.21379 6.6161 2.82979 6.67446 2.55779C6.73281 2.28579 6.78388 2.08579 6.82764 1.95779C7.04648 1.89379 7.25072 1.82979 7.44038 1.76579C7.63004 1.70179 7.84158 1.62179 8.075 1.52579C8.27925 1.41379 8.45432 1.26979 8.60021 1.09379C8.74609 0.917789 8.85551 0.781789 8.92846 0.68579C8.97222 0.653789 9.01599 0.637789 9.05976 0.637789C9.10352 0.621789 9.14729 0.653789 9.19106 0.733789C9.23483 0.82979 9.2713 0.92579 9.30048 1.02179C9.32965 1.11779 9.35883 1.22179 9.38801 1.33379C9.70897 2.46979 10.0372 3.62179 10.3728 4.78979C10.7229 5.94179 11.0657 7.08579 11.4013 8.22179C11.7368 9.34179 12.0578 10.4218 12.3642 11.4618C12.6851 12.4858 12.9769 13.4298 13.2395 14.2938C13.3708 14.7258 13.5313 15.0698 13.7209 15.3258C13.9252 15.5818 14.144 15.7818 14.3774 15.9258C14.6255 16.0538 14.8954 16.1578 15.1871 16.2378C15.3768 16.2858 15.5227 16.3498 15.6248 16.4298C15.7269 16.5098 15.778 16.6218 15.778 16.7658C15.778 16.8618 15.7269 16.9338 15.6248 16.9818C15.5373 17.0298 15.4206 17.0538 15.2747 17.0538C15.0121 17.0538 14.6765 17.0458 14.268 17.0298C13.8741 17.0138 13.4656 16.9978 13.0425 16.9818C12.6195 16.9498 12.2402 16.9338 11.9046 16.9338C11.6128 16.9338 11.2846 16.9418 10.9199 16.9578C10.5697 16.9738 10.2123 16.9898 9.84756 17.0058C9.49743 17.0218 9.19835 17.0298 8.95034 17.0298C8.80445 17.0298 8.67315 17.0058 8.55644 16.9578C8.45432 16.8938 8.40325 16.8058 8.40325 16.6938C8.40325 16.5658 8.46161 16.4618 8.57832 16.3818C8.69503 16.2858 8.83363 16.2218 8.99411 16.1898C9.51931 16.0938 9.89862 15.9498 10.132 15.7578C10.3655 15.5498 10.453 15.2538 10.3946 14.8698C10.3509 14.5978 10.2852 14.2778 10.1977 13.9098C10.1102 13.5258 10.0153 13.1338 9.91321 12.7338C9.82568 12.3178 9.73085 11.9418 9.62873 11.6058C9.59955 11.4778 9.55578 11.3898 9.49743 11.3418C9.43907 11.2778 9.32965 11.2458 9.16918 11.2458H5.23015C5.12803 11.2458 5.04779 11.2858 4.98943 11.3658C4.93108 11.4298 4.88731 11.5338 4.85813 11.6778C4.79977 11.8858 4.72683 12.1258 4.6393 12.3978C4.56635 12.6538 4.48611 12.9258 4.39858 13.2138C4.32563 13.4858 4.25269 13.7418 4.17974 13.9818C4.12139 14.2218 4.07762 14.4298 4.04844 14.6058C3.9755 15.0378 4.04115 15.3818 4.24539 15.6378C4.46423 15.8778 4.83625 16.0698 5.36145 16.2138C5.75535 16.3258 5.9523 16.4938 5.9523 16.7178C5.9523 16.8138 5.90124 16.8938 5.79912 16.9578C5.71159 17.0058 5.58029 17.0298 5.40522 17.0298C5.06967 17.0298 4.71954 17.0138 4.35481 16.9818C3.99009 16.9658 3.58889 16.9578 3.15122 16.9578C2.71355 16.9578 2.28318 16.9818 1.8601 17.0298C1.4516 17.0778 1.03582 17.1018 0.612737 17.1018ZM5.821 10.1418H8.86281C9.06705 10.1418 9.16918 10.0938 9.16918 9.99779C9.16918 9.94979 9.16188 9.90979 9.14729 9.87779C9.14729 9.84579 9.14 9.79779 9.12541 9.73379L7.59357 4.18979C7.53521 3.96579 7.48415 3.85379 7.44038 3.85379C7.4112 3.85379 7.36014 3.95779 7.2872 4.16579L5.44898 9.73379C5.41981 9.81379 5.40522 9.87779 5.40522 9.92579C5.40522 10.0058 5.44169 10.0618 5.51464 10.0938C5.60217 10.1258 5.70429 10.1418 5.821 10.1418Z" fill="#285D2D"/>
<path d="M25.1342 17.3658C24.4923 17.3658 23.8722 17.2298 23.2741 16.9578C22.6905 16.6698 22.2164 16.2698 21.8517 15.7578C21.4869 15.2458 21.3046 14.6218 21.3046 13.8858C21.3046 12.8298 21.6182 11.8698 22.2456 11.0058C22.8729 10.1258 23.7264 9.41379 24.8059 8.86979L25.2655 8.62979L25.0248 8.36579C24.8789 8.18979 24.6892 7.97379 24.4558 7.71779C24.2224 7.44579 24.0108 7.12579 23.8212 6.75779C23.6461 6.37379 23.5586 5.94979 23.5586 5.48579C23.5586 4.92579 23.7191 4.42979 24.04 3.99779C24.3756 3.56579 24.8205 3.22179 25.3749 2.96579C25.9293 2.70979 26.5493 2.58179 27.235 2.58179C27.8915 2.58179 28.4532 2.71779 28.92 2.98979C29.4015 3.24579 29.7735 3.58179 30.0361 3.99779C30.2987 4.39779 30.43 4.83779 30.43 5.31779C30.43 6.00579 30.2185 6.55779 29.7954 6.97379C29.3869 7.38979 28.8252 7.74179 28.1103 8.02979L27.6946 8.22179L28.0666 8.65379C28.5188 9.18179 28.9638 9.68579 29.4015 10.1658C29.8391 10.6458 30.2549 11.1498 30.6488 11.6778L30.999 12.1338L31.3272 11.7738C31.6482 11.4378 31.9327 11.0778 32.1807 10.6938C32.4433 10.2938 32.6548 9.92579 32.8153 9.58979C32.9904 9.25379 33.0779 9.01379 33.0779 8.86979C33.0779 8.67779 33.0122 8.51779 32.8809 8.38979C32.7642 8.24579 32.6183 8.14979 32.4433 8.10179C32.3557 8.05379 32.2682 8.00579 32.1807 7.95779C32.1077 7.89379 32.0713 7.81379 32.0713 7.71779C32.0713 7.55779 32.1369 7.46979 32.2682 7.45379C32.3995 7.42179 32.5308 7.40579 32.6621 7.40579C32.7934 7.40579 32.9685 7.42179 33.1873 7.45379C33.4207 7.46979 33.6542 7.49379 33.8876 7.52579C34.1356 7.54179 34.3617 7.54979 34.566 7.54979C34.8432 7.54979 35.1422 7.51779 35.4632 7.45379C35.7841 7.37379 36.0905 7.29379 36.3823 7.21379C36.6887 7.13379 36.9513 7.09379 37.1701 7.09379C37.243 7.09379 37.3087 7.12579 37.3671 7.18979C37.44 7.25379 37.4765 7.31779 37.4765 7.38179C37.4765 7.49379 37.4108 7.61379 37.2795 7.74179C37.1482 7.85379 36.995 7.92579 36.82 7.95779C36.3969 8.02179 36.0322 8.16579 35.7258 8.38979C35.4194 8.59779 35.1568 8.81379 34.938 9.03779C34.8067 9.16579 34.617 9.36579 34.369 9.63779C34.1356 9.89379 33.873 10.1818 33.5812 10.5018C33.2894 10.8058 32.9977 11.1098 32.7059 11.4138C32.4287 11.7178 32.1734 11.9898 31.94 12.2298C31.7065 12.4698 31.5315 12.6458 31.4147 12.7578L31.8087 13.3098C32.2755 13.9658 32.7205 14.5098 33.1435 14.9418C33.5812 15.3738 34.0408 15.5898 34.5222 15.5898C34.7848 15.5898 35.062 15.5578 35.3538 15.4938C35.6601 15.4298 35.9519 15.3338 36.2291 15.2058C36.3021 15.1738 36.375 15.1418 36.4479 15.1098C36.5355 15.0778 36.6157 15.0618 36.6887 15.0618C36.8054 15.0618 36.8856 15.0858 36.9294 15.1338C36.9877 15.1658 37.0169 15.2538 37.0169 15.3978C37.0169 15.5738 36.8637 15.8218 36.5574 16.1418C36.251 16.4618 35.8425 16.7418 35.3319 16.9818C34.8359 17.2218 34.2888 17.3418 33.6906 17.3418C33.1362 17.3418 32.6548 17.2538 32.2463 17.0778C31.8524 16.9018 31.4877 16.6378 31.1521 16.2858C30.8312 15.9338 30.4811 15.4938 30.1017 14.9658L29.7516 14.4618L29.6422 14.6058C29.2045 15.1498 28.7523 15.6298 28.2854 16.0458C27.8186 16.4618 27.3298 16.7818 26.8192 17.0058C26.3086 17.2458 25.7469 17.3658 25.1342 17.3658ZM26.4034 15.3258C26.8849 15.3258 27.3517 15.2378 27.804 15.0618C28.2562 14.8698 28.6866 14.5338 29.0951 14.0538L29.2702 13.8618L28.9638 13.4058C28.5261 12.7818 28.052 12.1578 27.5414 11.5338C27.0453 10.9098 26.5129 10.2618 25.9439 9.58979L25.6813 9.25379L25.2655 9.49379C24.857 9.68579 24.5433 9.94179 24.3245 10.2618C24.1203 10.5818 23.9744 10.9258 23.8868 11.2938C23.8139 11.6618 23.7774 12.0378 23.7774 12.4218C23.7774 13.2858 24.0181 13.9898 24.4996 14.5338C24.981 15.0618 25.6156 15.3258 26.4034 15.3258ZM27.3007 7.69379L27.5414 7.50179C27.8186 7.30979 28.0228 7.00579 28.1541 6.58979C28.2854 6.17379 28.3511 5.75779 28.3511 5.34179C28.3657 4.82979 28.2708 4.37379 28.0666 3.97379C27.8769 3.57379 27.5633 3.37379 27.1256 3.37379C26.8046 3.37379 26.5129 3.50179 26.2502 3.75779C25.9876 4.01379 25.8563 4.34179 25.8563 4.74179C25.8563 5.12579 25.8928 5.46179 25.9658 5.74979C26.0533 6.03779 26.1773 6.29379 26.3378 6.51779C26.4983 6.74179 26.6806 6.98179 26.8849 7.23779L27.3007 7.69379Z" fill="#285D2D"/>
<path d="M43.5768 17.0778C43.4455 17.0778 43.3288 17.0458 43.2267 16.9818C43.1246 16.9338 43.0735 16.8618 43.0735 16.7658C43.0735 16.5258 43.2559 16.3658 43.6206 16.2858C44.175 16.1578 44.5689 15.9818 44.8023 15.7578C45.0357 15.5338 45.1524 15.1578 45.1524 14.6298V4.06979C45.1524 3.46179 45.0576 3.01379 44.868 2.72579C44.6929 2.43779 44.3428 2.22979 43.8175 2.10179C43.6133 2.05379 43.4674 1.98979 43.3799 1.90979C43.2923 1.81379 43.2486 1.71779 43.2486 1.62179C43.2486 1.50979 43.2923 1.42979 43.3799 1.38179C43.482 1.31779 43.6133 1.28579 43.7738 1.28579C44.1239 1.28579 44.4449 1.29379 44.7367 1.30979C45.043 1.30979 45.3348 1.31779 45.612 1.33379C45.8892 1.34979 46.1737 1.35779 46.4654 1.35779C46.7864 1.35779 47.0855 1.34179 47.3627 1.30979C47.6544 1.27779 47.9462 1.24579 48.238 1.21379C48.5444 1.18179 48.8945 1.16579 49.2884 1.16579C51.0245 1.16579 52.4105 1.56579 53.4463 2.36579C54.4821 3.16579 55 4.26979 55 5.67779C55 6.66979 54.8103 7.58979 54.431 8.43779C54.0663 9.26979 53.4973 9.94179 52.7241 10.4538C51.9655 10.9658 51.0026 11.2218 49.8355 11.2218C49.4708 11.2218 49.1936 11.1658 49.0039 11.0538C48.8143 10.9258 48.7194 10.7898 48.7194 10.6458C48.7194 10.5498 48.7632 10.4698 48.8507 10.4058C48.9529 10.3258 49.0404 10.2858 49.1133 10.2858C49.2446 10.2858 49.3687 10.3018 49.4854 10.3338C49.6167 10.3498 49.8063 10.3578 50.0543 10.3578C50.74 10.3578 51.2579 9.97379 51.6081 9.20579C51.9728 8.43779 52.1552 7.41379 52.1552 6.13379C52.1552 4.72579 51.8926 3.70179 51.3673 3.06179C50.8567 2.40579 50.1638 2.07779 49.2884 2.07779C48.8799 2.07779 48.559 2.17379 48.3255 2.36579C48.1067 2.54179 47.9973 2.82979 47.9973 3.22979L47.9754 14.4858C47.9754 15.0138 48.0921 15.4138 48.3255 15.6858C48.5736 15.9418 48.9893 16.1418 49.5729 16.2858C49.7626 16.3178 49.9012 16.3738 49.9887 16.4538C50.0762 16.5178 50.12 16.6138 50.12 16.7418C50.12 16.8538 50.0762 16.9338 49.9887 16.9818C49.9157 17.0298 49.799 17.0538 49.6385 17.0538C49.303 17.0538 48.9602 17.0378 48.61 17.0058C48.2599 16.9898 47.917 16.9738 47.5815 16.9578C47.2605 16.9418 46.9542 16.9338 46.6624 16.9338C46.3414 16.9338 46.0059 16.9418 45.6558 16.9578C45.3202 16.9738 44.9774 16.9978 44.6272 17.0298C44.2771 17.0618 43.927 17.0778 43.5768 17.0778Z" fill="#285D2D"/>
</svg>
